<svg xmlns="http://www.w3.org/2000/svg" width="75" height="62" viewBox="0 0 75 62">
    <g fill="none" fill-rule="evenodd">
        <g fill-rule="nonzero">
            <g>
                <path fill="#FFF8E6" d="M69.661 34.275c-.324 1.435-1.721 2.322-3.163 1.997l-5.165-1.17L59.097 45l-10.24-12.726-16.804-3.803c-1.427-.325-2.31-1.733-1.986-3.168l5.267-23.239C35.658.63 37.07-.258 38.498.067l34.444 7.801c1.427.326 2.325 1.733 1.987 3.168L69.66 34.275z" transform="translate(-1035 -119) matrix(-1 0 0 1 1110 119)"/>
                <path fill="#FDAC42" d="M3.74 62l2.934-13.53-2.3-.545C1.352 47.21-.55 44.075.143 40.918L5.42 16.564c.678-3.156 3.686-5.133 6.694-4.418l34.515 8.176c3.023.715 4.91 3.85 4.232 7.007l-5.249 24.203c-.678 3.157-3.686 5.134-6.708 4.418l-15.806-3.747L3.74 62zm.57-18.704l9.276 1.843-3.052 8.773 11.869-6.692 19.116 4.164L46.69 24.5l-35.727-8.088L4.31 43.296z" transform="translate(-1035 -119) matrix(-1 0 0 1 1110 119)"/>
            </g>
        </g>
    </g>
</svg>
