<svg xmlns="http://www.w3.org/2000/svg" width="22" height="22" viewBox="0 0 22 22">
    <g fill="none" fill-rule="evenodd" stroke-linecap="round" stroke-linejoin="round">
        <g stroke="#28293D" stroke-width="2">
            <g>
                <path d="M57 4l-2 2m-7.61 7.61c1.405 1.386 1.96 3.42 1.453 5.327-.507 1.907-1.997 3.397-3.904 3.904-1.908.506-3.94-.048-5.327-1.453-2.084-2.158-2.055-5.588.067-7.71 2.122-2.122 5.552-2.151 7.71-.067l.001-.001zm0 0L51.5 9.5m0 0l3 3L58 9l-3-3m-3.5 3.5L55 6" transform="translate(-121 -49) translate(84 46)"/>
            </g>
        </g>
    </g>
</svg>
